<svg xmlns="http://www.w3.org/2000/svg" viewBox="0 0 1200 760" preserveAspectRatio="xMidYMid slice" role="img" aria-label="Stylized granite spires above an alpine lake">
  <defs>
    <linearGradient id="sky" x1="0" y1="0" x2="0" y2="1">
      <stop offset="0" stop-color="#1a2a33"/>
      <stop offset="0.45" stop-color="#2b4a58"/>
      <stop offset="0.75" stop-color="#4a7a8c"/>
      <stop offset="1" stop-color="#b8a06a"/>
    </linearGradient>
    <linearGradient id="lake" x1="0" y1="0" x2="0" y2="1">
      <stop offset="0" stop-color="#7dc4dc" stop-opacity="0.55"/>
      <stop offset="1" stop-color="#2f6f86" stop-opacity="0.9"/>
    </linearGradient>
  </defs>
  <rect width="1200" height="760" fill="url(#sky)"/>
  <polygon points="0,760 0,470 110,420 210,450 300,300 340,250 372,300 430,350 520,250 560,150 590,200 640,240 700,170 730,200 800,300 900,370 1000,420 1200,460 1200,760" fill="#3b4c56" opacity="0.85"/>
  <polygon points="520,250 560,150 590,200 574,240 540,250" fill="#d8d6c8" opacity="0.5"/>
  <polygon points="300,300 340,250 372,300 350,330 320,325" fill="#d8d6c8" opacity="0.35"/>
  <polygon points="700,170 730,200 716,236 690,226" fill="#d8d6c8" opacity="0.3"/>
  <polygon points="0,760 0,520 200,490 380,430 520,380 600,360 700,400 820,460 980,510 1200,540 1200,760" fill="#27363f" opacity="0.9"/>
  <g fill="#c8901f" opacity="0.55">
    <polygon points="140,520 152,470 164,520"/>
    <polygon points="880,540 890,496 900,540"/>
    <polygon points="1010,560 1022,514 1034,560"/>
    <polygon points="450,470 460,428 470,470"/>
  </g>
  <ellipse cx="640" cy="640" rx="380" ry="46" fill="url(#lake)"/>
  <ellipse cx="640" cy="632" rx="260" ry="18" fill="#dbe7eb" opacity="0.18"/>
  <rect x="0" y="690" width="1200" height="70" fill="#0d1820" opacity="0.7"/>
</svg>
